<svg width="72" height="72" viewBox="0 0 72 72" fill="none" xmlns="http://www.w3.org/2000/svg">
<rect width="72" height="72" rx="20" fill="#FFE95C"/>
<path d="M16.9694 50C16.5694 50 16.3694 49.8533 16.3694 49.56C16.3694 49.32 16.5427 49.16 16.8894 49.08L17.8094 48.92C18.3694 48.8133 18.7294 48.6667 18.8894 48.48C19.076 48.2933 19.1694 47.92 19.1694 47.36V23.84C19.1694 23.28 19.076 22.9067 18.8894 22.72C18.7294 22.5333 18.3694 22.3867 17.8094 22.28L16.8894 22.12C16.5427 22.04 16.3694 21.88 16.3694 21.64C16.3694 21.3467 16.5694 21.2 16.9694 21.2H30.4094C31.0227 21.2 31.356 21.5067 31.4094 22.12L31.7294 28.76C31.7827 29.2133 31.6094 29.44 31.2094 29.44C30.8894 29.44 30.7027 29.2667 30.6494 28.92L30.4094 27.44C30.116 25.6267 29.516 24.3067 28.6094 23.48C27.7027 22.6267 26.4494 22.2 24.8494 22.2C23.7827 22.2 23.036 22.36 22.6094 22.68C22.2094 22.9733 22.0094 23.5067 22.0094 24.28V33.92C22.0094 34.2933 22.196 34.48 22.5694 34.48H24.5694C25.7427 34.48 26.4627 33.8533 26.7294 32.6L27.1294 30.6C27.236 30.2 27.4627 30.0267 27.8094 30.08C28.1027 30.1333 28.2494 30.36 28.2494 30.76V39.76C28.2494 40.16 28.1027 40.3867 27.8094 40.44C27.4627 40.4933 27.236 40.32 27.1294 39.92L26.7294 37.96C26.5427 37.0267 26.276 36.4133 25.9294 36.12C25.6094 35.8267 25.1427 35.68 24.5294 35.68H22.5694C22.196 35.68 22.0094 35.8667 22.0094 36.24V46.28C22.0094 47.24 22.2494 47.9333 22.7294 48.36C23.236 48.7867 24.1427 49 25.4494 49C26.7827 49 27.916 48.6667 28.8494 48C29.8094 47.3067 30.476 46.0267 30.8494 44.16L31.3294 41.8C31.4094 41.4533 31.6094 41.28 31.9294 41.28C32.3027 41.28 32.4627 41.5067 32.4094 41.96L32.0094 49.08C31.956 49.6933 31.6227 50 31.0094 50H16.9694ZM38.9744 50.36C38.361 50.36 37.7077 50.28 37.0144 50.12C36.321 49.9867 35.761 49.8133 35.3344 49.6C35.0944 49.4667 34.9744 49.24 34.9744 48.92L34.8544 44.44C34.8544 43.9867 35.0277 43.76 35.3744 43.76C35.6677 43.76 35.8677 43.9733 35.9744 44.4C36.4277 46.2933 36.9744 47.5867 37.6144 48.28C38.281 48.9733 39.081 49.32 40.0144 49.32C40.7877 49.32 41.4277 49.0267 41.9344 48.44C42.441 47.8267 42.6944 46.9867 42.6944 45.92C42.6944 44.8533 42.401 43.9067 41.8144 43.08C41.2277 42.2533 40.241 41.3467 38.8544 40.36C37.4677 39.4267 36.4544 38.4933 35.8144 37.56C35.1744 36.6 34.8544 35.56 34.8544 34.44C34.8544 32.92 35.3877 31.6933 36.4544 30.76C37.521 29.8267 38.9344 29.36 40.6944 29.36C41.2277 29.36 41.7477 29.4267 42.2544 29.56C42.761 29.6667 43.2144 29.8533 43.6144 30.12C43.8544 30.28 43.9744 30.4933 43.9744 30.76L44.0544 35.16C44.0544 35.56 43.8944 35.76 43.5744 35.76C43.3877 35.76 43.2544 35.7067 43.1744 35.6C43.0944 35.4667 43.0277 35.3067 42.9744 35.12C42.441 33.3867 41.9077 32.1867 41.3744 31.52C40.841 30.8267 40.1877 30.48 39.4144 30.48C38.721 30.48 38.1477 30.72 37.6944 31.2C37.241 31.68 37.0144 32.28 37.0144 33C37.0144 33.9333 37.2944 34.7467 37.8544 35.44C38.4144 36.1333 39.4277 36.9867 40.8944 38C42.2277 38.96 43.2277 40 43.8944 41.12C44.5877 42.2133 44.9344 43.4133 44.9344 44.72C44.9344 46.4267 44.3877 47.8 43.2944 48.84C42.201 49.8533 40.761 50.36 38.9744 50.36ZM51.9191 50.36C50.9857 50.36 50.2124 50.04 49.5991 49.4C49.0124 48.7333 48.7191 47.6533 48.7191 46.16V31.2C48.7191 30.88 48.5591 30.72 48.2391 30.72H47.0791C46.6524 30.72 46.4391 30.56 46.4391 30.24C46.4391 30.0267 46.5591 29.84 46.7991 29.68C47.6791 29.0667 48.3857 28.4133 48.9191 27.72C49.4524 27 49.9191 26.0267 50.3191 24.8C50.5057 24.24 50.7324 23.96 50.9991 23.96C51.2924 23.96 51.4391 24.1733 51.4391 24.6V29.04C51.4391 29.4133 51.6257 29.6 51.9991 29.6H54.5991C55.0257 29.6 55.2391 29.7867 55.2391 30.16C55.2391 30.5333 55.0257 30.72 54.5991 30.72H51.9991C51.6257 30.72 51.4391 30.9067 51.4391 31.28V46.2C51.4391 46.7867 51.5324 47.2533 51.7191 47.6C51.9057 47.92 52.2524 48.08 52.7591 48.08C53.3191 48.08 53.7724 47.8 54.1191 47.24C54.4924 46.68 54.7324 45.7733 54.8391 44.52C54.8924 44.1467 55.0657 43.96 55.3591 43.96C55.6791 43.96 55.8391 44.16 55.8391 44.56C55.7591 46.6133 55.3324 48.0933 54.5591 49C53.8124 49.9067 52.9324 50.36 51.9191 50.36Z" fill="#1A3300"/>
</svg>
